<svg xmlns="http://www.w3.org/2000/svg" width="24.001" height="24" viewBox="0 0 24.001 24">
  <path id="instagram" d="M-1771.377-339a6.631,6.631,0,0,1-6.623-6.623v-10.753a6.631,6.631,0,0,1,6.623-6.623h10.754a6.631,6.631,0,0,1,6.624,6.623v10.753a6.631,6.631,0,0,1-6.624,6.623Zm-4.494-17.377v10.753a4.5,4.5,0,0,0,4.494,4.494h10.754a4.5,4.5,0,0,0,4.494-4.494v-10.753a4.5,4.5,0,0,0-4.494-4.494h-10.754A4.5,4.5,0,0,0-1775.871-356.376Zm3.687,5.377a6.192,6.192,0,0,1,6.185-6.184,6.19,6.19,0,0,1,6.184,6.184,6.19,6.19,0,0,1-6.184,6.184A6.192,6.192,0,0,1-1772.184-351Zm2.129,0a4.06,4.06,0,0,0,4.056,4.055,4.06,4.06,0,0,0,4.055-4.055,4.06,4.06,0,0,0-4.055-4.055A4.06,4.06,0,0,0-1770.055-351Zm9.4-5.324a1.572,1.572,0,0,1-.459-1.1,1.566,1.566,0,0,1,.459-1.1,1.564,1.564,0,0,1,1.1-.457,1.563,1.563,0,0,1,1.1.457,1.564,1.564,0,0,1,.457,1.1,1.57,1.57,0,0,1-.457,1.1,1.574,1.574,0,0,1-1.1.457A1.572,1.572,0,0,1-1760.659-356.323Z" transform="translate(1778 363)" fill="#475f7f"/>
</svg>
