<svg xmlns="http://www.w3.org/2000/svg" width="24" height="22.933" viewBox="0 0 24 22.933">
  <path id="LinkedIn" d="M24,23.618v8.873H18.856V24.213c0-2.08-.744-3.5-2.606-3.5A2.815,2.815,0,0,0,13.611,22.6a3.52,3.52,0,0,0-.171,1.254v8.642H8.294s.069-14.021,0-15.474H13.44v2.193c-.01.016-.024.034-.034.05h.034v-.05a5.109,5.109,0,0,1,4.637-2.557C21.462,16.654,24,18.865,24,23.618ZM2.912,9.558a2.681,2.681,0,1,0-.068,5.348h.034a2.682,2.682,0,1,0,.034-5.348ZM.306,32.491H5.449V17.017H.306Z" transform="translate(0 -9.558)" fill="#475f7f"/>
</svg>
