<svg xmlns="http://www.w3.org/2000/svg" width="255.805" height="41.383" viewBox="0 0 255.805 41.383">
  <g id="Group_149" data-name="Group 149" transform="translate(-23.195 -88.638)">
    <g id="Group_113" data-name="Group 113" transform="translate(23.195 88.638)">
      <path id="Path_249" data-name="Path 249" d="M67.259,9.46,65,12.479l1.593,1.2L69.753,9.46Z" transform="translate(-65 -6.572)" fill="#707070"/>
      <path id="Path_250" data-name="Path 250" d="M222.836,111.86l-3.156,4.216h2.494l2.259-3.019Z" transform="translate(-172.464 -77.715)" fill="#707070"/>
      <path id="Path_251" data-name="Path 251" d="M119.287,31.841l-2.317,3.086-4.884-3.764,7.5-9.988-.73-2.35L110.5,29.945l-1.337-1.029L118.2,16.874l-.745-2.329L98.612,0H96.118L89.406,8.947,87.956,7.83,93.835,0h-2.57L86.311,6.563,81.54,2.888h-2.5L75.05,8.214l1.6,1.2,2.317-3.086,4.762,3.666-7.5,9.927.049.128h0l.769,2.314,8.333-11.1,1.45,1.117-9.084,12.1.745,2.329L97.336,41.358H99.83l6.758-9,1.337,1.029-6.007,8,2.509-.015,5.079-6.767,4.884,3.764h2.5l3.993-5.324Zm-2.643-16.209-.638.852-4.481-3.449-.842,1.1,4.493,3.462L107.587,27.7,98.4,20.629h2.2l6.789-9.035,1.255.965-6.062,8.071h2.494l5.263-7-.861-2.173-12.332-9.5.638-.849ZM98.725,19.8l-9.487-7.308.919-1.224,9.487,7.308Zm-1.441,1.706,9.475,7.3-.919,1.224-9.475-7.3ZM96.317,3.062l9.49,7.311-5.333,7.1-9.49-7.308ZM79.794,5.217l.919-1.224L85.48,7.665l-.922,1.221Zm6.413,4.942.919-1.224,1.45,1.117-.919,1.224Zm-6.9,15.568.638-.849,4.481,3.449.842-1.1L80.777,23.77,88.411,13.6l9.121,7.027H95.456l-6.893,9.142L87.309,28.8l6.169-8.178H90.984l-5.366,7.109.861,2.173L98.8,39.4l-.638.849ZM99.635,38.3l-9.49-7.311,5.388-7.152,9.478,7.3Zm7.784-7.051.919-1.224,1.337,1.029-.919,1.224Zm7.8,6.01-4.884-3.764.919-1.224,4.884,3.764Z" transform="translate(-71.982)" fill="#707070"/>
    </g>
    <g id="Group_114" data-name="Group 114" transform="translate(81 102.136)">
      <g id="Group_114-2" data-name="Group 114">
        <path id="Path_252" data-name="Path 252" d="M24.985,178.76a5.376,5.376,0,0,0-5.825,5.579c0,3.954,2.824,4.921,6.051,4.921a17.449,17.449,0,0,0,3.529-.384l.487-2.81a13.371,13.371,0,0,1-3.55.665c-1.336,0-2.659-.562-2.659-2.131H30a7.444,7.444,0,0,0,.144-1.508C30.139,180.3,28.316,178.76,24.985,178.76Zm-1.85,4.016a1.871,1.871,0,0,1,1.809-1.768c.973,0,1.46.6,1.46,1.768Z" transform="translate(-6.029 -175.388)" fill="#707070"/>
        <path id="Path_253" data-name="Path 253" d="M51.093,178.76a21.984,21.984,0,0,0-4.79.624l-.4,2.447a12.966,12.966,0,0,1,4.242-.946c.548,0,1.261.144,1.261.8,0,1.768-6.922.459-6.922,4.7,0,.219.041,2.872,3.756,2.872a10.8,10.8,0,0,0,1.624-.123l.672-2.186a3.194,3.194,0,0,1-1.076.178c-.548,0-1.117-.178-1.117-.8,0-1.186,2.337-1.268,3.084-1.789-.082,1.487-.144,2.995-.3,4.475h3.9c0-2.008.343-7.025.343-7.532C55.356,179.822,54.3,178.76,51.093,178.76Z" transform="translate(-15.197 -175.388)" fill="#707070"/>
        <path id="Path_254" data-name="Path 254" d="M67.759,181.392a6.363,6.363,0,0,1,2.378.459l-.164-2.748a23.217,23.217,0,0,0-3.488-.343c-2.865,0-4.1,1.186-4.1,2.851,0,2.351,3.529,3.475,3.529,4.42,0,.583-.87.6-1.316.6a8.531,8.531,0,0,1-2.94-.72l.3,2.913a18.056,18.056,0,0,0,3.591.439c1.809,0,4.345-.685,4.345-2.892,0-2.591-3.529-3.392-3.529-4.475C66.361,181.392,67.273,181.392,67.759,181.392Z" transform="translate(-21.047 -175.388)" fill="#707070"/>
        <path id="Path_255" data-name="Path 255" d="M88.658,177.774c0-.843,1.2-1.062,1.83-1.062a8.2,8.2,0,0,1,2.94.665l-.26-3.152a19.879,19.879,0,0,0-3.612-.384c-4.605,0-5.154,2.748-5.154,3.673,0,3.132,4.811,4.736,4.811,6.284,0,.925-1.24,1.042-1.905,1.042a9.17,9.17,0,0,1-3.488-.884l.3,3.31a22.735,22.735,0,0,0,4.037.439c4.345,0,5.318-2.529,5.318-3.893C93.469,180.844,88.658,179.357,88.658,177.774Z" transform="translate(-28.624 -173.84)" fill="#707070"/>
        <path id="Path_256" data-name="Path 256" d="M105.823,178.76a21.984,21.984,0,0,0-4.79.624l-.4,2.447a12.966,12.966,0,0,1,4.242-.946c.548,0,1.261.144,1.261.8,0,1.768-6.922.459-6.922,4.7,0,.219.041,2.872,3.756,2.872a10.8,10.8,0,0,0,1.624-.123l.672-2.186a3.194,3.194,0,0,1-1.076.178c-.548,0-1.117-.178-1.117-.8,0-1.186,2.337-1.268,3.084-1.789-.082,1.487-.144,2.995-.3,4.475h3.9c0-2.008.343-7.025.343-7.532C110.086,179.822,109.031,178.76,105.823,178.76Z" transform="translate(-33.897 -175.388)" fill="#707070"/>
        <path id="Path_257" data-name="Path 257" d="M125.346,178.76a4.511,4.511,0,0,0-3.8,1.583l-.041-.041.1-1.3H117.65a97.551,97.551,0,0,1-.61,10.019h4.037a27.636,27.636,0,0,1,.507-5.483,2.084,2.084,0,0,1,2.008-1.645c1.179,0,1.48.9,1.48,1.885,0,1.748-.185,3.5-.3,5.243h4c0-2.508.288-6.524.288-7.066C129.061,179.5,127.334,178.76,125.346,178.76Z" transform="translate(-40.008 -175.388)" fill="#707070"/>
        <path id="Path_258" data-name="Path 258" d="M141.475,175.27l-3.694.822-.123,1.809h-1.645l-.1,2.632h1.521c-.062,1.789-.281,3.372-.281,4.962,0,2.145,1.3,2.673,3.248,2.673a10.9,10.9,0,0,0,2.659-.322l.507-2.769a5.515,5.515,0,0,1-1.419.219c-.85,0-1.014-.624-1.014-1.384,0-1.323.082-2.248.144-3.372h2.3l.082-2.632h-2.275Z" transform="translate(-46.377 -174.29)" fill="#707070"/>
        <path id="Path_259" data-name="Path 259" d="M154.237,178.76c-3.392,0-6.127,1.946-6.127,5.483,0,1.569.911,5.017,5.949,5.017,3.413,0,6.031-1.885,6.031-5.442C160.083,180.446,157.4,178.76,154.237,178.76Zm-.24,7.689c-1.343,0-1.905-1.1-1.905-2.248,0-1.3.63-2.632,2.131-2.632,1.323,0,1.885,1.021,1.885,2.207C156.108,185.044,155.518,186.449,154,186.449Z" transform="translate(-50.628 -175.388)" fill="#707070"/>
        <path id="Path_260" data-name="Path 260" d="M206.816,178.6a4.511,4.511,0,0,0-3.8,1.583l-.041-.041.1-1.3H199.12a97.56,97.56,0,0,1-.61,10.019h4.037a27.634,27.634,0,0,1,.507-5.483,2.084,2.084,0,0,1,2.008-1.645c1.179,0,1.48.9,1.48,1.885,0,1.748-.185,3.5-.3,5.243h4c0-2.508.288-6.524.288-7.066C210.531,179.34,208.81,178.6,206.816,178.6Z" transform="translate(-67.857 -175.338)" fill="#707070"/>
        <path id="Path_261" data-name="Path 261" d="M222.945,175.11l-3.694.822-.123,1.809h-1.645l-.1,2.632H218.9c-.062,1.789-.288,3.372-.288,4.962,0,2.145,1.3,2.673,3.248,2.673a10.9,10.9,0,0,0,2.659-.322l.507-2.769a5.516,5.516,0,0,1-1.419.219c-.85,0-1.014-.624-1.014-1.384,0-1.323.082-2.248.144-3.372h2.3l.082-2.632h-2.275Z" transform="translate(-74.176 -174.24)" fill="#707070"/>
        <path id="Path_262" data-name="Path 262" d="M235.707,178.6c-3.392,0-6.127,1.946-6.127,5.483,0,1.569.911,5.017,5.949,5.017,3.413,0,6.031-1.885,6.031-5.441C241.553,180.286,238.873,178.6,235.707,178.6Zm-.24,7.689c-1.343,0-1.905-1.1-1.905-2.248,0-1.3.631-2.632,2.131-2.632,1.323,0,1.885,1.021,1.885,2.207C237.578,184.884,236.988,186.289,235.467,186.289Z" transform="translate(-78.476 -175.338)" fill="#707070"/>
        <path id="Path_263" data-name="Path 263" d="M180.128,174.03c-1.117,2.351-5.7,11.041-7.148,13.391h4.667l1.789-3.852h5c.466,1.288.932,2.549,1.282,3.852h4.509c-1.727-4.434-3.413-8.9-4.975-13.391Zm.507,6.723,1.83-3.838,1.261,3.838Z" transform="translate(-59.264 -173.9)" fill="#707070"/>
        <path id="Path_264" data-name="Path 264" d="M256.236,178.6a4.511,4.511,0,0,0-3.8,1.583l-.041-.041.1-1.3H248.54a97.538,97.538,0,0,1-.61,10.019h4.037a27.636,27.636,0,0,1,.507-5.483,2.084,2.084,0,0,1,2.008-1.645c1.179,0,1.48.9,1.48,1.885,0,1.748-.185,3.5-.3,5.243h4c0-2.508.288-6.524.288-7.066C259.957,179.34,258.23,178.6,256.236,178.6Z" transform="translate(-85.498 -175.338)" fill="#707070"/>
        <path id="Path_265" data-name="Path 265" d="M281.657,178.6c-3.392,0-6.127,1.946-6.127,5.483,0,1.569.911,5.017,5.949,5.017,3.413,0,6.031-1.885,6.031-5.441C287.5,180.286,284.823,178.6,281.657,178.6Zm-.24,7.689c-1.343,0-1.905-1.1-1.905-2.248,0-1.3.631-2.632,2.131-2.632,1.323,0,1.885,1.021,1.885,2.207C283.528,184.884,282.938,186.289,281.417,186.289Z" transform="translate(-94.183 -175.338)" fill="#707070"/>
        <path id="Path_266" data-name="Path 266" d="M0,177.336l4.448-.144v10.355H8.43V177.192l4.4.144V174.43H0Z" transform="translate(0 -174.026)" fill="#707070"/>
        <rect id="Rectangle_48" data-name="Rectangle 48" width="3.975" height="13.117" transform="translate(25.152 0.404)" fill="#707070"/>
        <rect id="Rectangle_49" data-name="Rectangle 49" width="3.975" height="2.22" transform="translate(175.885 0.404)" fill="#707070"/>
        <rect id="Rectangle_50" data-name="Rectangle 50" width="3.975" height="9.629" transform="translate(175.885 3.886)" fill="#707070"/>
      </g>
      <g id="Group_115" data-name="Group 115" transform="translate(192.997 3.749)">
        <path id="Path_267" data-name="Path 267" d="M296.192,182.847a1.311,1.311,0,0,0-.274-.212.8.8,0,0,0,.493-.233.679.679,0,0,0,.164-.466.708.708,0,0,0-.11-.4.559.559,0,0,0-.295-.24,1.738,1.738,0,0,0-.583-.069H294.52v2.508h.507V182.69h.1a.782.782,0,0,1,.254.027.423.423,0,0,1,.151.1,2.971,2.971,0,0,1,.267.37l.363.548h.6l-.308-.487A2.391,2.391,0,0,0,296.192,182.847Zm-.781-.548h-.377v-.637h.4c.206,0,.329,0,.37.007a.342.342,0,0,1,.192.1.3.3,0,0,1,.069.206.31.31,0,0,1-.048.185.28.28,0,0,1-.144.1A1.756,1.756,0,0,1,295.411,182.3Z" transform="translate(-293.156 -179.914)" fill="#707070"/>
        <path id="Path_268" data-name="Path 268" d="M295.031,179.31a2.5,2.5,0,1,0,2.5,2.5A2.5,2.5,0,0,0,295.031,179.31Zm0,4.64a2.138,2.138,0,1,1,2.138-2.138A2.141,2.141,0,0,1,295.031,183.95Z" transform="translate(-292.53 -179.31)" fill="#707070"/>
      </g>
    </g>
  </g>
</svg>
