<svg xmlns="http://www.w3.org/2000/svg" xmlns:xlink="http://www.w3.org/1999/xlink" width="478.369" height="559.227" viewBox="0 0 478.369 559.227">
  <defs>
    <clipPath id="clip-path">
      <path id="Path_117" data-name="Path 117" d="M18.882-46.867a2.613,2.613,0,0,0-2.612,2.612,2.615,2.615,0,0,0,2.612,2.612,2.615,2.615,0,0,0,2.612-2.612,2.613,2.613,0,0,0-2.612-2.612" transform="translate(-16.27 46.867)" fill="#f26e2a" clip-rule="evenodd"/>
    </clipPath>
    <clipPath id="clip-path-2">
      <path id="Path_116" data-name="Path 116" d="M-1776.5,8146.939H-415.366V-2317.5H-1776.5Z" transform="translate(1776.5 2317.5)" fill="#f26e2a"/>
    </clipPath>
    <clipPath id="clip-path-3">
      <path id="Path_120" data-name="Path 120" d="M11.119-46.907A3.922,3.922,0,0,1,7.2-50.824a3.921,3.921,0,0,1,3.917-3.917,3.921,3.921,0,0,1,3.917,3.917,3.922,3.922,0,0,1-3.917,3.917Zm0-13.711a11.111,11.111,0,0,0-11.1,11.1c0,3.913,2.371,6.806,4.154,8.64C7.13-37.833,10.44-30.7,10.466-29.715a.652.652,0,0,0,.653.653.654.654,0,0,0,.653-.624V-29.7h0v-.016c0-.964,1.964-7.577,5.641-10.666,3.144-2.64,4.805-5.8,4.805-9.138a11.111,11.111,0,0,0-11.1-11.1Z" transform="translate(-0.02 60.617)" fill="#f26e2a" clip-rule="evenodd"/>
    </clipPath>
  </defs>
  <g id="Group_518" data-name="Group 518" transform="translate(3441.846 1115.257)">
    <g id="Group_27" data-name="Group 27" transform="translate(-4649 -2046)">
      <g id="Group_20" data-name="Group 20" transform="translate(1207.331 930.873)">
        <g id="Group_96" data-name="Group 96" transform="translate(0 0)">
          <g id="Group_95" data-name="Group 95" transform="translate(0 0)">
            <path id="Path_244" data-name="Path 244" d="M67.821,42.274c-.862-1.437-3.449.287-6.323-1.725a7.1,7.1,0,0,0-2.587-1.15h-.287A25.588,25.588,0,0,0,54.6,42.849c2.012,1.437,9.2,3.736,11.209,3.736a1.738,1.738,0,0,0,1.725-.862C67.821,44.286,68.109,42.562,67.821,42.274Z" transform="translate(101.757 73.556)" fill="#fff" stroke="#fff" stroke-miterlimit="10" stroke-width="0.25"/>
            <path id="Path_245" data-name="Path 245" d="M71.046,52.168c.287-.575-1.437-3.449,1.725-3.449,3.449-.287,5.748-.575,6.323-2.587s4.311-1.15,5.461-1.15c.862,0,3.736-2.874,6.611-2.587,0-2.874-3.736-2.012-6.323-4.6-2.874-2.874-8.91-1.437-12.359-.287s-7.186-1.437-10.635.575h0c-.862.862-1.725,2.3-3.162,3.162-2.3,2.012-1.725,4.024-2.587,4.6.862.287,1.725.862,2.587,1.15,2.587,1.725,5.461.287,6.323,1.725a7.784,7.784,0,0,1,0,3.736c.575-.287.862-.575,1.725,0s.575,1.437.575,2.3l2.012-.575C69.321,53.892,70.758,52.743,71.046,52.168Z" transform="translate(104.568 67.399)" fill="#fff" stroke="#fff" stroke-miterlimit="10" stroke-width="0.25"/>
            <path id="Path_246" data-name="Path 246" d="M146.785,103.284c.575,0,7.186.862,7.76-.862s-4.886-5.174-4.311-5.461.862-4.311,1.725-4.311,10.06.287,10.635,0,2.3-3.449,3.736-3.449a5.712,5.712,0,0,1,2.587,1.725c1.725-1.437,2.3-4.886,2.587-7.76.287-3.449-.862-4.6,1.15-6.611,1.725-2.012,3.736-2.012,3.162-4.886-.575-2.587-2.874,0-4.886-1.15s-3.736-.287-9.2.287c-5.174.862-7.76,2.874-7.473,6.611s-1.725,2.012-1.725,5.174-4.024,3.449-3.736,5.174c.287,2.012-3.449,0-4.311-.575-1.15-.575-12.072,2.587-13.509,2.874s-4.311-3.162-6.611-3.162-3.162-3.162-3.449-6.036c-.287-2.587-4.311-5.174-6.036-7.473s-2.012-7.76-2.3-11.209c0-3.449-.575-9.485,2.012-16.1a8.886,8.886,0,0,0,.575-2.3,4.587,4.587,0,0,0-2.3-.862c-2.3,0-7.186-2.874-8.048-2.874s-.862-2.3-1.725-3.449-.287-3.449-1.437-4.311a17.852,17.852,0,0,1-5.461-7.76c-1.15-3.736-7.76-5.748-10.347-5.748s-3.736,5.174-4.6,5.461c-.575.287-5.461-2.874-6.611-3.449-1.437-.575-2.012-2.012-2.012-3.736s-2.874-4.311-3.736-4.6-6.611-5.748-6.611-5.748h-8.91L51.361,8.723H34.978s-12.647-4.6-14.946-5.174C17.445,2.974,13.421.1,13.421.1L.2,1.825A19.826,19.826,0,0,0,3.362,6.711,32.187,32.187,0,0,1,8.248,17.92c0,2.012,3.736,3.736,6.9,5.748s3.162,6.611,2.874,7.76-4.311-.862-4.6.287,5.174,5.748,7.186,5.461,3.162,1.15,6.323,3.736c3.162,2.874,2.874,6.036,1.725,7.186s2.587,3.162,6.611,6.036c4.024,2.587,5.748,6.036,6.036,7.473s2.3,0,2.874-1.725c.575-2.012-1.15-2.3-1.15-4.6s-3.449-1.725-4.886-2.012,0-3.449-1.437-5.174c-1.437-1.437-2.874-5.461-3.736-8.335s-4.6-5.748-6.323-8.623c-1.725-3.162-3.449-5.461-4.6-6.323s1.437-2.012.575-3.162c-1.15-1.15-2.587-.862-4.6-1.725-1.725-1.15-3.162-2.587-3.162-4.6a29.043,29.043,0,0,0-2.012-8.623c-.575-1.725,1.437-1.437,2.3-.575.575.862,1.15,1.437,2.012,1.15.862-.575,2.3,0,3.162,1.15.575,1.437,2.874,0,3.736.862,1.15.575-2.3,1.437,1.15,7.186,3.162,6.036.862,2.587.862,6.611s2.012,2.3,2.587,1.437c.575-.575,2.3,1.15,4.024,3.449,1.725,2.012,4.886,2.3,4.886,3.449s.575,3.449,2.874,3.736,2.587,2.874,4.024,3.162,1.725,1.725.862,3.449,0,3.162,3.449,4.6,2.012,1.725,4.6,4.311a171.943,171.943,0,0,1,12.359,13.8,19.808,19.808,0,0,1,2.874,6.323c.575,1.725-1.15,2.587-.287,4.311,1.15,1.437-2.012.862-1.725,2.012,0,1.15,1.725,6.9,4.6,7.186s6.036,3.736,8.335,5.748,5.748,1.437,9.2,2.874c3.449,1.15,6.323,4.311,11.5,5.748,4.886,1.437,9.772,3.449,12.934,5.748,3.162,2.012,7.186,1.15,11.784-.575s8.048.575,10.635,1.437a42.056,42.056,0,0,1,6.323,4.886A59.355,59.355,0,0,1,146.785,103.284Z" transform="translate(-0.2 -0.1)" fill="#fff" stroke="#fff" stroke-miterlimit="10" stroke-width="0.25"/>
            <path id="Path_247" data-name="Path 247" d="M70.869,48.3l3.162-3.162c-2.012,1.15-2.587,0-2.3-1.437l-2.874.287L69.145,32.2H59.372c-.862,0-1.15,4.024-1.725,4.311s4.886,4.024,4.311,5.461c-.575,1.725-7.186.862-7.76.862-.287,0-2.587,2.874-4.6,6.323,2.587,2.3,5.174,4.6,6.323,5.461,2.3,1.437,6.323,0,8.048,1.437h.287a25.588,25.588,0,0,1,4.024-3.449C69.432,52.607,68.282,50.595,70.869,48.3Z" transform="translate(92.386 60.062)" fill="#fff" stroke="#fff" stroke-miterlimit="10" stroke-width="0.25"/>
            <path id="Path_248" data-name="Path 248" d="M57.45,34.736h-.862L56.3,46.521l2.874-.287A5.964,5.964,0,0,1,60.9,43.359c2.3-1.725-1.15-8.91,1.437-9.485.575,0,.862-.287,1.15-.862A3.646,3.646,0,0,0,61.186,31C59.462,31.287,57.737,34.449,57.45,34.736Z" transform="translate(104.943 57.813)" fill="#fff" stroke="#fff" stroke-miterlimit="10" stroke-width="0.25"/>
            <path id="Path_249" data-name="Path 249" d="M93.509,27.826c-2.587,1.725,3.736,5.748,3.736,8.048S86.9,35.3,86.036,37.885c-.575,1.15,3.449,3.162,7.473,1.725a9.268,9.268,0,0,1,8.048,1.15c.287-4.024.862-8.335,1.15-11.209C99.257,28.688,95.233,26.676,93.509,27.826Z" transform="translate(160.571 51.215)" fill="#fff" stroke="#fff" stroke-miterlimit="10" stroke-width="0.25"/>
            <path id="Path_250" data-name="Path 250" d="M99.06,37.11c4.6-1.437,12.072,1.15,12.072-2.3s-12.359-7.473-15.521-6.323A6.212,6.212,0,0,1,92.45,28.2c-.287,2.874-.862,7.473-1.15,11.209.287,0,.287.287.575.287C94.174,40.847,94.462,38.547,99.06,37.11Z" transform="translate(170.54 52.565)" fill="#fff" stroke="#fff" stroke-miterlimit="10" stroke-width="0.25"/>
            <path id="Path_251" data-name="Path 251" d="M72.767,62.243c1.15.575,4.311,0,5.748.862.575.575,1.725.575,2.874.287a3.968,3.968,0,0,0-.862-1.15c-.862-1.725.575-4.886,1.437-7.473s-.575-8.335.862-10.06c1.437-1.437.575-2.3,1.15-6.036V38.1c-2.874,0-5.748,2.587-6.611,2.587-1.15,0-5.174-.862-5.461,1.15-.575,2.012-2.874,2.587-6.323,2.587-3.449.287-1.725,3.162-1.725,3.449A9.453,9.453,0,0,1,62.133,49.6l-2.012.575c0,.862-.287,1.725.862,2.3,2.012,1.15,4.886,5.748,7.186,6.9a3.844,3.844,0,0,1,2.012,2.3C70.755,61.956,72.193,61.669,72.767,62.243Z" transform="translate(112.044 71.12)" fill="#fff" stroke="#fff" stroke-miterlimit="10" stroke-width="0.25"/>
            <path id="Path_253" data-name="Path 253" d="M146.767,146.679c0-2.587-2.874-3.449-4.024-4.6-.862-1.15-4.886-2.587-6.611-4.886-1.437-2.3-2.587.862-3.162.862-.862,0-.575-1.725-2.587-4.024s-3.736-2.3-4.886-1.725a1.808,1.808,0,0,1-1.725,0,4.994,4.994,0,0,0-1.725,3.162c0,2.587-1.725,5.174-2.012,9.772,0,4.6-1.437,4.024-1.437,7.473,0,3.736,1.15,2.874,1.725,3.449.287.287,0,1.437-.287,2.3a2.986,2.986,0,0,0,2.3,1.15c2.3-.287,4.6.575,7.473,2.012,2.874,1.15,1.725-.287,4.6,0,2.587.287,5.748.575,8.623-1.15,2.012-1.15,3.162-3.449,4.6-5.461C145.9,152.14,146.767,148.691,146.767,146.679Z" transform="translate(221.706 247.087)" fill="#fff" stroke="#fff" stroke-miterlimit="10" stroke-width="0.25"/>
            <path id="Path_254" data-name="Path 254" d="M130.407,338.941c-3.162,0-9.485-6.036-11.5-7.473s-.575-3.162-2.874-2.587c-2.3.287-.862-1.725.575-2.3,1.15-.575-.575-2.874-2.012-3.162-.287,3.449-.862,18.97,0,18.97.862.287,7.76-.862,9.772.575.862.287,1.725.862,2.587,0,1.15-1.437,5.174-.575,7.186-2.012C136.443,339.516,133.856,338.941,130.407,338.941ZM201.4,136.6a12.969,12.969,0,0,0-3.736-.287v.575c.287,2.3-1.15,8.623-2.874,8.623-1.724-.287-3.162,2.587-4.6,2.3s-3.162,2.012-5.174,1.15c-1.725-1.15-4.024.287-5.461-.575s-5.461-.287-5.461-1.15c0-1.15,2.012-.575,2.012-3.736s5.174-6.611,4.6-7.76-9.485-3.737-10.635-5.461a8.289,8.289,0,0,0-6.323-3.162c-3.449-.287-3.162-2.012-6.323-4.024a31.642,31.642,0,0,1-8.048-8.335c-2.012-.287-5.174-.575-5.748,0-.862,1.15-2.3,5.748-3.449,3.449s-4.024-2.3-6.611-2.874c-2.587-.287-2.3-2.874-5.174.287a16.281,16.281,0,0,1-4.311,3.449c-.287,2.874-.575,5.748-1.15,6.9s-6.323,3.736-6.611,5.174.575,3.162-.287,4.024c-1.15.862,2.3,5.174.575,6.323-2.012,1.15,1.437,2.874.287,3.736-1.15,1.15-3.449,1.437-3.449,2.874,0,1.15-.287,4.024-1.725,4.886-1.437.575-2.587,3.162-2.587,5.174s-2.3.575-1.437,3.162c.862,2.3,2.012,5.461,0,6.036s-1.437,4.6-2.3,4.6c-1.15,0-1.437,4.024,0,6.323a9.34,9.34,0,0,1,2.012,5.748c0,2.012,2.012,2.874,1.437,5.174-.575,2.012-.287,4.024-1.437,4.886s-.287,3.449-1.725,4.024,1.15,6.323,0,7.186c-1.15,1.15-4.311,2.012-4.311,5.748s.575,6.036.287,7.76c-.287,1.437,1.725,1.15,1.437,3.162-.287,2.3-3.162.862-3.162,2.3-.287,1.437.575,4.311-.287,4.311-1.15.287-1.437,1.15-1.437,3.736,0,2.3-1.437,2.874-1.437,4.024-.287,1.15,1.15,2.587,1.15,4.024s.862,6.036-.287,6.323-2.012,5.461-.862,6.036,1.15,2.012.575,3.162,2.3,2.012.862,3.736a1.687,1.687,0,0,0,1.725,2.874c1.725-.575,2.874,2.587.862,2.587s-3.736,0-2.3,1.15,3.162,2.874.862,3.737-.287,2.3-.862,4.6c-.575,2.012,1.437,4.024-.287,4.6s.575,3.737-1.725,4.024-.862,2.587-2.3,3.736,2.012,3.162.287,4.6c-2.012,1.15-.575,4.024-2.3,4.024-2.012,0-2.874,2.587-3.162,3.736s-1.437,3.736.287,5.461c1.437,1.725-.287,3.162,1.15,3.736s6.036-.287,5.461,1.725-.575,6.611.287,6.611,1.437,2.587,2.874,2.3,7.76-.862,10.347-.287a11.151,11.151,0,0,1,3.162,1.725c1.437-.575,4.6,1.437,5.461.862.862-.862-3.162-4.311-3.162-5.461s-.575-3.162-.575-4.311-.575-4.024,1.15-5.461c1.725-1.15,2.012-2.587,3.162-2.3s3.449-1.15,3.449-4.024c0-3.162,1.437-4.311,4.024-6.323,2.874-2.3,7.473-4.6,6.9-5.748s1.15-4.311,1.15-5.748-4.311-1.15-5.748-1.437c-1.437-.575-6.611-4.024-4.024-8.91,2.587-4.6,8.048-5.174,9.485-5.461,1.437,0,0-2.3,1.437-3.162,1.15-.862,1.437-2.012,1.437-4.024,0-2.3,0-5.748,2.3-6.036s2.874-1.437,1.437-2.012c-1.437-.287-2.012-2.012.287-2.3s1.437,2.012,3.162,2.012,4.6-2.874,2.3-4.6-2.874.862-4.024,1.15-2.012-1.437-3.162-1.437-.287-3.162-.862-4.311-1.15-4.024-.287-5.461c1.15-1.437,5.461,2.3,9.2,2.3,3.737.287,6.611-2.012,6.611-3.449s-1.725-4.024.575-5.461.287-2.012-.287-4.024,1.15-3.449,2.012-2.3c1.15,1.15,8.623.287,14.946-.862s10.635-3.449,10.922-5.461c.287-1.725,4.311-6.036,5.174-7.473s0-3.449-2.3-3.736c-2.587-.287-2.3-3.449-1.15-4.886,1.437-1.725-.862-3.162-3.162-3.449s-6.323-2.012-4.024-4.024c1.15-.862,1.437-.862,2.012-.287.287-.862.575-2.012.287-2.3-.575-.575-1.725,0-1.725-3.449,0-3.736,1.437-2.874,1.437-7.473s2.012-7.473,2.012-9.772c0-2.587,4.311-5.461,6.9-9.485s7.76-9.2,10.06-10.635,6.611-2.587,6.9-4.024C203.125,144.069,202.55,137.171,201.4,136.6Z" transform="translate(163.061 213.482)" fill="#fff" stroke="#fff" stroke-miterlimit="10" stroke-width="0.25"/>
            <path id="Path_255" data-name="Path 255" d="M107.331,336.022c-1.437.287-2.012-2.3-2.874-2.3s-1.15-4.6-.287-6.611c.575-2.012-4.024-1.15-5.461-1.725s.575-2.012-1.15-3.736c-1.437-1.725-.287-4.024-.287-5.461.287-1.15,1.15-3.736,3.162-3.736s.575-2.874,2.3-4.024c2.012-1.15-1.725-3.162-.287-4.6,1.437-1.15,0-3.449,2.3-3.736s0-3.449,1.725-4.024-.287-2.3.287-4.6c.575-2.012-1.437-3.736.862-4.6s.575-2.587-.862-3.736.287-1.15,2.3-1.15.862-3.162-.862-2.587a1.687,1.687,0,0,1-1.725-2.874c1.437-1.437-1.437-2.587-.862-3.736a2.3,2.3,0,0,0-.575-3.162c-1.15-.575-.287-6.036.862-6.036,1.15-.287.287-4.886.287-6.323s-1.437-2.874-1.15-4.024,1.437-1.437,1.437-4.024c0-2.3.575-3.449,1.437-3.736,1.15-.287.287-2.874.287-4.311.287-1.437,2.874,0,3.162-2.3s-1.725-2.012-1.437-3.162c.287-1.725-.287-3.736-.287-7.76,0-3.737,3.162-4.6,4.311-5.748s-1.437-6.611,0-7.186.575-3.162,1.724-4.024.862-2.874,1.437-4.886-1.437-3.162-1.437-5.174a7.867,7.867,0,0,0-2.012-5.748c-1.437-2.012-1.15-6.323,0-6.323s.575-4.024,2.3-4.6c2.012-.575.862-3.449,0-6.036-.862-2.3,1.437-1.15,1.437-3.162s1.15-4.6,2.587-5.174,1.725-3.736,1.725-4.886,2.3-1.725,3.449-2.874-2.012-2.874-.287-3.736c2.012-1.15-1.437-5.461-.575-6.323,1.15-.862.287-2.874.287-4.024.287-1.437,6.036-4.024,6.611-5.174.575-.862,1.15-4.024,1.15-6.9-1.725,1.15-3.449,1.725-3.736,1.15-.575-1.15.287-4.886-1.437-6.323-1.437-1.437-.575-4.6-2.012-5.174s-3.449-3.736-2.012-4.886,0-3.162,1.15-4.024c1.15-1.15-.575-1.15-2.3-3.162s.575-4.6-1.437-6.036-2.012-3.449-2.587-2.587-.575,3.736-2.3,4.6c-.287,0-.862.575-1.15.862,0,1.437-.575,3.736,0,5.174.862,2.012,1.15,11.209.287,14.946-.862,3.449-1.437,6.611-2.3,8.623-.862,2.3,1.725,2.3.862,3.449-1.15,1.15-.575,3.449-.575,7.76,0,4.024-2.3,10.922-2.587,13.221,0,2.3-1.725,3.449-1.437,6.036.287,2.3-1.15,3.736-2.587,4.886s2.3,4.886,2.3,6.9-2.874,2.874-2.3,6.323c.862,4.024,0,11.209,0,12.646s-1.725,1.15-1.15,4.024c.287,2.587-1.725,3.449-2.012,7.186s-3.449,9.485-4.6,12.359-1.15,4.6-2.587,4.6-2.012,1.725-.862,4.311-.862,4.6.862,7.186c1.437,2.587,1.15,3.449.287,6.036-.862,2.3-1.725,2.587-1.725,4.886s-1.725,4.311-.862,6.9c1.15,2.587.862,3.449-.575,3.449-1.15,0-2.012,2.012-2.3,6.323-.575,4.311-.287,4.024,2.587,3.736,3.162-.287.575-10.347,2.587-10.347s.287-1.725,2.3-2.3.287,1.725,1.437,2.3c1.15.287,2.3,1.437.287,2.587-1.725,1.15.287,3.449-.575,4.886s-2.3,2.874-1.437,4.6-.862,1.437-1.15,3.736c0,2.3,1.15,2.3.287,2.874s1.15,2.3,0,2.3c-1.15.287-.575,2.012.287,3.449s-1.725.575-2.874,1.725,1.15,2.3.575,3.736c-.862,1.437-2.874-.862-3.736-1.437-.862-.862,1.437-2.3,2.587-3.736s-1.15-4.886-3.162-4.311c-2.012.862,2.012,2.874,2.012,4.6s-3.162-.287-3.162,1.437-2.3,1.15-3.449,2.3,1.437,2.3.287,2.874c-1.15.287-3.449,2.3-3.449,3.449s1.437,1.437,1.437.287a1.311,1.311,0,0,1,2.587,0c.575,1.725,1.437,0,3.449.287,1.725.288,1.437,3.162.575,2.874-1.15,0-2.012,1.725-1.725,3.449.287,2.012,3.736,0,5.461.575,1.437.575,1.15,3.162,0,2.3-.862-.862-2.874-2.3-3.736-.862s-2.3.862-3.449.287-5.174,2.3-3.736,3.162c1.437,1.15,1.15,2.587,2.3,2.587a4.38,4.38,0,0,0,2.874-1.724c.575-1.15,2.3-2.012,2.3.287s-2.3,1.15-2.874,2.3a8.64,8.64,0,0,1-3.162,3.449c-1.437,1.15,0,3.162,1.15,2.3,1.15-.575-.287,1.437,1.437,1.725a1.525,1.525,0,0,0,1.725-2.3c-.287-1.15.862-4.024,2.3-2.587s-.862,2.874-.862,4.024-.862,2.874-.862,4.311-1.725.575-1.437,2.3c0,1.437-3.449.575-2.012,1.437,1.725,1.15-1.15,2.3,0,3.449.862,1.15,1.725-1.437,3.162-.862s1.15.862,2.874,0,2.874,1.437,1.15,2.012-3.449,2.3-2.587,2.587,2.874-1.15,3.449.287c.575,1.725,1.725,1.15,2.012-.575,0-1.724,3.162-.287,3.736,1.15s-3.162,2.3-5.174,2.012-2.874,1.725-1.725,3.449,2.874,0,4.311-1.437,8.335-1.15,8.91.575c.575,1.437-3.162.287-3.449,1.15s-3.162,1.724-3.449.575S96.7,341.2,96.7,342.92s-2.3,1.725,0,2.3,1.725-2.3,5.174-2.3c3.449.287,5.461-3.449,6.611-1.15,1.15,2.012-2.874,3.736-4.311,2.3-1.437-1.15-3.162.862-2.874,2.874,0,2.012-4.024-.575-6.036-.862s-1.15,2.012.575,3.736c1.725,2.012,2.874-.287,4.886,1.15,2.3,1.437,2.3,2.874,3.736,1.437s0-1.15-1.15-2.012c-1.15-.575,0-2.874,2.3-1.725s5.174-1.15,4.6-4.024c-.862-3.162,2.3-4.6,5.174-5.461,2.874-1.15,1.437,2.012-.862,2.874s-2.587,1.437-.862,3.449c1.725,1.725,3.736-1.15,5.174.287s-2.587,1.15-3.162,2.587,2.3,3.162.287,4.024c-2.3,1.15-1.15-4.311-2.3-4.6-1.15-.575-2.3.575-1.15,3.449s-1.437.287-2.874-1.15c-1.15-1.437-3.162.575-1.437,2.3,1.437,1.437-2.874,0-2.874,2.3s2.012.287,4.311.862,1.15,3.737,2.874,5.174c1.725,1.15.287-4.024,2.012-4.6,1.725-.287,0,4.024,4.024,5.461,4.024,1.15.287-.862,2.012-2.012s4.024,3.736,6.036,4.311.575-2.3-.862-3.736,1.437-.575,3.449,0,3.449.862,3.736-.575c.287-.575.575-.575.862-.287-2.012-1.437-8.91-.287-9.772-.575s-.287-15.521,0-18.97h-.287c-1.725,0-5.461.287-4.6-2.3,0-.575.287-.575.575-.862a8.246,8.246,0,0,0-3.162-1.725C114.8,335.16,108.48,335.734,107.331,336.022Z" transform="translate(156.797 194.994)" fill="#fff" stroke="#fff" stroke-miterlimit="10" stroke-width="0.25"/>
            <path id="Path_256" data-name="Path 256" d="M158.462,136.222c-2.012-1.15-4.024,1.15-4.886,1.15-.575,0-2.3-4.6-2.874-6.323-.575-2.012-2.587-5.748-4.024-4.886s-1.15-.287-4.886-.575c-4.024-.287-3.737-.862-2.874-4.6s-2.587-6.323-1.15-7.186c1.15-.575,1.15-1.437-.287-3.162a1.056,1.056,0,0,1-.862.287c-1.437,0-3.162-2.3-5.461-2.3s-4.886-.287-6.611.575-4.886-.287-6.9,1.15-4.6,4.311-4.311,5.461-.575,8.623-1.725,8.91H109.6a36.694,36.694,0,0,0,8.048,8.335c3.162,2.012,2.874,3.736,6.323,4.024a8.289,8.289,0,0,1,6.323,3.162c1.15,1.437,10.06,4.024,10.635,5.461.575,1.15-4.6,4.6-4.6,7.76s-2.012,2.874-2.012,3.737c0,1.15,4.024.287,5.461,1.15s3.737-.575,5.461.575,3.736-1.437,5.174-1.15,2.874-2.3,4.6-2.3c1.725.287,3.162-6.036,2.874-8.623C157.6,144.845,160.473,137.372,158.462,136.222Z" transform="translate(203.838 203.222)" fill="#fff" stroke="#fff" stroke-miterlimit="10" stroke-width="0.25"/>
            <path id="Path_257" data-name="Path 257" d="M80.925,58.759c-.287-.575,0-2.3.862-3.736a57.035,57.035,0,0,1-5.748-7.186c-1.15.287-2.3.287-2.874-.287-1.15-.862-4.311-.287-5.748-.862a9.831,9.831,0,0,0-3.162-.287,1.8,1.8,0,0,1-.575,2.3c-1.15.862-1.15,3.736,1.437,4.886,2.874,1.15,2.012-.575,3.449-.575s1.15,2.3,2.587,2.3c1.15,0,4.311,1.437,4.024,3.449,0,2.012,1.15,2.874,3.449,2.874h1.437A26.6,26.6,0,0,0,80.925,58.759Z" transform="translate(117.395 86.676)" fill="#fff" stroke="#fff" stroke-miterlimit="10" stroke-width="0.25"/>
            <path id="Path_258" data-name="Path 258" d="M99.079,53.4c-2.012-3.162-5.748-2.874-8.048-3.736-2.3-1.15-5.174.287-8.335,3.162-2.874,2.587-6.611,1.15-9.2-.287-.862-.287-1.725-1.437-2.874-2.587a5.015,5.015,0,0,0-.862,3.736c.287.575-.287,1.725-.862,3.162,2.587.287,5.748,1.437,7.473,3.449,2.012,2.3,3.162.862,4.311,2.874s3.736,0,4.6-1.15c.575-1.15-1.437-1.725-1.725-3.162s2.587-.862,3.162-2.874,4.6-2.874,6.323-2.012,3.449,2.012,1.725,4.024c-1.15,1.437,1.15,4.024,3.449,6.036a41.01,41.01,0,0,1,4.024-3.736,4.68,4.68,0,0,0,.862-1.725C101.666,57.419,100.516,55.407,99.079,53.4Z" transform="translate(128.558 92.04)" fill="#fff" stroke="#fff" stroke-miterlimit="10" stroke-width="0.25"/>
            <path id="Path_259" data-name="Path 259" d="M87.16,114.219c1.725.862,3.736.575,4.311,0s2.012.862,4.024,3.162l.287.287c1.725-.287,4.024-.862,4.886-.287,1.725,1.15,1.15,4.6,3.449,4.886A4.234,4.234,0,0,1,107.854,126c-.287,1.15,2.3,1.725,2.3,3.736-.287,1.725,5.748,1.437,6.611.862a3.628,3.628,0,0,1,3.449-.287c1.15.575,2.874-.575,3.736-.287,1.15.287,4.886,2.012,4.311,3.449-.862,1.437-3.736,3.736-2.874,4.886.575.862,2.587,1.437,3.449,2.874h.287c1.437-.287,2.3-6.036,2.3-7.76a36.181,36.181,0,0,1,1.15-7.76c.862-3.449-3.736-5.748-3.736-9.485s1.725-1.725,4.024-3.162c2.012-1.437,0-2.012-1.15-2.3s-1.725-2.012-1.437-3.162,6.611-.575,8.623-.575a20.045,20.045,0,0,0,6.611-2.012,2.489,2.489,0,0,0-1.15-2.874c-1.437-1.15-.862-2.874.287-4.311s-.862-2.874-2.3-4.311c-1.437-1.725-.287-7.76,1.437-10.635s-3.449-2.3-6.9-1.725a12.241,12.241,0,0,1-8.335-4.6c-2.012-2.587-4.886-.862-9.772-.862s-4.024-5.461-3.736-7.76c.287-2.012-2.587-2.3-2.587-3.736s-1.437-1.437-2.587-1.15c-1.15,0,0-1.437.862-2.587s.862-2.012.862-4.311,3.449-4.311,5.174-6.611c.287-.575,1.15-.862,1.725-1.15a2.023,2.023,0,0,1,1.437-1.15c2.587-.575,3.736-2.3,1.437-3.449-2.3-1.437-3.736,2.587-6.611,3.162-2.587.287-3.162,2.012-4.886,2.874s-5.174,0-5.174,1.725-1.15,0-2.587-.287-5.461,3.162-5.461,4.886c0,2.012.862,3.736-2.012,5.461s-4.6,5.174-5.748,6.611a.711.711,0,0,1-1.15.287c-.287.862-.287,1.437-.862,1.725-.575.575-2.3,2.3-4.024,3.736A9.453,9.453,0,0,1,84.573,75.7c1.725,2.012.575,3.449,1.15,4.6s1.15,2.587,0,3.162,0,7.76,1.15,8.91,0,2.3-1.15,4.886-2.3,3.736-4.6,3.736-2.3,3.736-2.874,3.736-1.15,1.437-1.15,2.3c2.012,1.725,6.036,4.024,7.186,4.024C84.86,111.632,85.435,113.357,87.16,114.219Z" transform="translate(143.927 81.227)" fill="#fff" stroke="#fff" stroke-miterlimit="10" stroke-width="0.25"/>
            <path id="Path_260" data-name="Path 260" d="M165.931,136.216c-.862-2.587-3.449-2.874-3.449-5.748s-1.15-3.162-4.886-2.874-6.036-.575-6.323-2.874-2.3-4.024-.575-4.886-1.15-2.3-.862-4.311-1.15-2.874-2.3-4.024-6.323.575-6.323-1.437-3.162-2.3-4.886-2.3-.575-2.3-2.3-2.012c-2.012.287-1.437-1.15-4.024-.862s-4.024-.862-6.9-4.024-2.3-9.485-2.012-11.209c.575-1.725-3.162-.287-5.461-.287s-4.311,1.724-6.9,3.162c-2.3,1.437-3.736,1.437-4.886,2.587s-3.162,2.012-4.886,1.15a18.309,18.309,0,0,0-2.012-.575c1.15,2.587,3.449,6.611,4.024,8.048.575,2.012-.862,2.3-1.437,3.162-.575.575.287,6.9.575,8.335s-2.3,4.024-1.437,4.886c1.15.862-1.437,3.449-1.437,4.886s2.3,1.437,2.3,2.587-2.012,4.024-3.162,4.6c-.575.287-.575,1.437-.575,2.3.287,0,.575,1.437,2.3,2.874,2.012,1.437-.287,4.024,1.437,6.036s3.449,2.3,2.3,3.162c-1.15,1.15.287,3.162-1.15,4.024-1.437,1.15.575,4.024,2.012,4.886,1.437.575.575,3.737,2.012,5.174s.862,5.174,1.437,6.323,5.174-1.725,7.76-4.6c2.874-2.874,2.587-.575,5.174-.287s5.461.287,6.611,2.874c1.15,2.3,2.587-2.3,3.449-3.449s6.611.287,7.76,0,2.012-7.76,1.725-8.91,2.3-4.024,4.311-5.461,5.174-.287,6.9-1.15,4.311-.575,6.611-.575,4.024,2.3,5.461,2.3,3.162-2.3,2.874-4.311C164.781,141.677,166.793,138.8,165.931,136.216Z" transform="translate(177.974 166.151)" fill="#fff" stroke="#fff" stroke-miterlimit="10" stroke-width="0.25"/>
            <path id="Path_261" data-name="Path 261" d="M140.207,171.914h0c0-1.15,0-2.3.575-2.587,1.15-.575,3.162-3.449,3.162-4.6s-2.3-1.15-2.3-2.587,2.3-4.024,1.437-4.886c-1.15-.862,1.437-3.449,1.437-4.886-.287-1.437-1.15-7.473-.575-8.335.575-.575,2.3-1.15,1.437-3.162-.575-1.437-2.874-5.748-4.024-8.048-2.012-.287-4.311-.287-5.461.287-2.012.575-1.437-5.174-1.437-7.473s-2.012-1.15-2.587.575c-.575,1.437-3.449.862-6.036.862-2.874,0-1.437-3.449-3.162-3.162s-3.162-.575-2.874-2.3-1.15-3.162-2.3-4.886c-1.15-2.012-2.587-3.736-1.437-4.886s-.575-2.3.862-3.736,3.162-1.15,2.587-3.162,1.725-3.162,2.012-5.461,2.874-1.437,5.174-3.449,4.886-.862,6.9-2.587,3.162-.287,4.6-.287c-.862-1.15-2.874-1.725-3.449-2.874s2.3-3.449,2.874-4.886c.862-1.437-3.162-2.874-4.311-3.449-1.15-.287-2.874.862-3.736.287a3.628,3.628,0,0,0-3.449.287c-.862.575-6.9.862-6.611-.862s-2.3-2.3-2.3-3.736c.287-1.15-1.437-3.449-3.736-3.736s-1.725-3.736-3.449-4.886c-.862-.575-3.162-.287-4.886.287,2.012,2.3,2.587,3.162,1.437,4.024-1.725,1.437,0,1.725-3.162,5.748-3.162,4.311-8.623,5.461-11.5,6.036-2.587.862-3.736,5.748-5.174,9.2s-2.587,2.3-4.024.287-2.587.287-4.311-1.15c-1.725-1.725-.862-1.725,0-2.874.575-.575,0-1.725-1.15-2.874-2.012.287-3.736,3.162-4.886,5.174-1.15,2.3,1.725,6.323,2.3,8.048.287,1.437-1.437,0-1.725,1.437s4.311,3.449,6.323,4.886,3.736,6.036,5.748,8.048,2.012,3.736,4.024,8.91c2.012,4.886,6.036,13.509,8.91,16.958s4.024,6.323,3.449,7.473,0,3.736,2.3,5.174c2.012,1.437,3.736,3.736,9.2,6.323s15.233,7.76,16.67,10.347c1.437,2.3,6.036,4.6,6.9,5.174.287,0,.287.575.287,1.15.575-.575.862-.862,1.15-.862C139.632,175.65,139.632,172.776,140.207,171.914Z" transform="translate(134.568 129.016)" fill="#fff" stroke="#fff" stroke-miterlimit="10" stroke-width="0.25"/>
            <path id="Path_262" data-name="Path 262" d="M95.614,48.224c-1.725,2.3-4.886,4.311-5.174,6.611,0,2.3,0,3.162-.862,4.311s-2.012,2.874-.862,2.587c1.15,0,2.587,0,2.587,1.15,0,1.437,2.874,1.725,2.587,3.736s-1.15,7.76,3.736,7.76,7.76-1.725,9.772.862a8.236,8.236,0,0,0,8.048,3.449c3.162-.287,8.623-1.15,6.9,1.725s-2.874,8.91-1.437,10.635,3.449,3.162,2.3,4.311c-1.15,1.437-1.725,3.162-.287,4.311a3.052,3.052,0,0,1,1.15,2.874,3.556,3.556,0,0,1-.862.575c2.3,2.3,3.162,4.886,4.311,5.748,1.725,1.437,2.3,2.012,3.449,1.437s2.012-1.15,3.162-.575,2.3-.575,4.024-2.012c1.437-1.437,3.162-.287,3.736-2.012s1.437-2.874,3.162-3.162c2.012-.287,2.012-2.3.575-2.3-1.15,0-2.874,1.437-2.874-.575s-1.437-1.725-1.437-3.736-.287-3.162-2.3-4.311,2.874-1.725,3.736-.575c1.15,1.15,4.6.287,5.174,1.725.287,1.437,2.3,2.012,2.3.287,0-2.012,2.3-2.587,4.024-2.3s5.461-2.3,7.186-2.874c.862-.287,1.15-1.15,1.437-2.012-1.15-1.437-2.874-4.024-3.736-4.6-1.15-1.15.862-1.725.575-3.162s0-2.587,2.587-2.587c2.587-.287,2.3-2.3.862-3.162s.575-3.162,2.012-4.024a6.1,6.1,0,0,0,2.012-2.874c-2.874-1.15-6.611-.862-8.335-.862-2.3,0,1.437-2.3,1.437-4.6s-6.036-2.587-8.623-3.162c-2.3-.575-1.725-3.162.862-3.162s-1.437-2.012-4.886-1.437a37.281,37.281,0,0,0-11.209,4.024c-2.874,1.437-7.76-4.6-10.922-3.162-3.162,1.15-7.76,1.15-7.473-1.15,0-2.587-1.15-4.6-4.6-4.6-3.162.287-2.3-3.162-4.886-3.162-2.3,0,0,2.874-1.725,3.736s-7.473,2.3-7.76,4.6,3.162,6.036,2.012,8.335-4.886.287-6.036-2.012,3.449-6.036,2.587-7.473a6.417,6.417,0,0,1-.862-4.024A4.959,4.959,0,0,0,95.614,48.224Z" transform="translate(164.79 82.553)" fill="#fff" stroke="#fff" stroke-miterlimit="10" stroke-width="0.25"/>
            <path id="Path_263" data-name="Path 263" d="M124.594,61.211c.862,1.725-1.15,2.587-2.587,2.587-1.725.287-1.15,4.024-2.3,4.886-1.15,1.15,4.024,3.736,4.886,6.036a50.065,50.065,0,0,0,3.449,6.611c1.15.287,2.3.575,2.874.287,1.437-.862.287-3.736,2.3-3.736,2.3.287,5.461-1.15,6.323.287.287.287.287.575.575.862.862-1.15,1.437-2.3,1.725-2.587a19.409,19.409,0,0,0-.575-7.76c-1.15-2.587-.287-5.748,1.15-6.9a18.372,18.372,0,0,0,1.15-2.874,15.349,15.349,0,0,0-5.748-1.437c-3.162.287-6.323,1.725-7.473,0s-2.874-1.437-4.311,0c-.287,0-.287.287-.575.287C124.882,59.2,124.307,60.349,124.594,61.211Z" transform="translate(223.472 105.205)" fill="#fff" stroke="#fff" stroke-miterlimit="10" stroke-width="0.25"/>
            <path id="Path_264" data-name="Path 264" d="M119.369,54.574c-1.437.862-3.449,3.162-2.012,4.024s2.012,2.874-.862,3.162c-2.587.287-2.874,1.15-2.587,2.587s-1.725,2.012-.575,3.162c.862.575,2.587,3.162,3.736,4.6a1.52,1.52,0,0,1,2.012-1.15c2.3.287.575,4.024,2.3,4.886,2.012.862,2.012,3.736.575,4.886s-2.012,6.9,1.15,10.347,5.461,2.874,6.323,2.012c.575-.862,3.162,0,3.736-1.437s1.437.287,2.874-1.437c.862-.862,2.587-.287,4.024,0-1.15-2.3-2.874-5.174-3.449-6.611-.862-2.3-5.748-4.886-4.886-6.036,1.15-1.15.575-4.886,2.3-4.886,1.725-.287,3.449-1.15,2.587-2.587a6.258,6.258,0,0,1,.575-3.736c-1.725-.287-4.024-4.886-5.461-4.886a2.784,2.784,0,0,1-2.874-3.449c.287-2.3-3.449-2.3-5.748-4.886a5.156,5.156,0,0,0-2.012-1.437A4.48,4.48,0,0,1,119.369,54.574Z" transform="translate(211.165 96.609)" fill="#fff" stroke="#fff" stroke-miterlimit="10" stroke-width="0.25"/>
            <path id="Path_265" data-name="Path 265" d="M127.85,67.06c1.15,2.587,1.15,6.9.575,7.76a19.494,19.494,0,0,1-1.725,2.587c.862,1.15,2.587,1.725,5.174.862,3.162-1.15,4.886,1.15,6.036-2.587.862-2.874,4.311-6.611,6.9-9.2h0c-2.3-1.15-6.036-6.9-9.772-7.76A33.06,33.06,0,0,1,130.149,57c-.575,1.725-.862,2.874-1.15,2.874A8.69,8.69,0,0,0,127.85,67.06Z" transform="translate(236.887 106.542)" fill="#fff" stroke="#fff" stroke-miterlimit="10" stroke-width="0.25"/>
            <path id="Path_266" data-name="Path 266" d="M114.145,32.832c-3.736,0-16.383-8.623-27.88-11.209s-21.557,5.748-20.407,7.186c1.437,2.012,7.186-2.587,10.06-4.6s5.461,1.15,5.748,2.3,3.736,2.012,9.772,2.3,6.611,5.174,12.359,6.323,0,3.449,2.874,4.6,17.82.862,18.682-.575C125.93,37.718,118.169,32.832,114.145,32.832Z" transform="translate(122.69 39.311)" fill="#fff" stroke="#fff" stroke-miterlimit="10" stroke-width="0.25"/>
            <path id="Path_252" data-name="Path 252" d="M208.867,291.21c3.449-2.587,2.587-4.024,4.311-7.186s.287-4.311,3.162-7.186c2.874-2.587-.575-4.6,3.162-6.036,3.449-1.725,3.162,1.437,0,5.174-2.874,3.736-3.449,4.886.287,2.012s5.174-6.9,7.473-11.209c2.3-4.6,3.736-5.748,5.748-6.036s2.012-4.886,1.725-8.335-1.15-6.323,0-8.623c1.437-2.3,0-4.311,1.725-4.311s4.6-2.587,7.186-5.461c2.874-2.874,4.6-3.162,7.473-3.449s1.15-1.15,3.162-1.725,3.162-2.3,4.6-3.449c1.15-1.15,6.611,0,9.485,0,3.162,0,5.174.287,5.174-1.725a3.262,3.262,0,0,1,3.162-3.449c1.725,0,2.587-.575,2.587-3.162a5.942,5.942,0,0,1,2.3-5.174c1.437-1.15,1.725-3.736,2.3-5.461s2.3-.575,2.3-3.162c0-2.3.862-5.174.862-7.186s2.012-1.724,2.874-3.162-.862-3.162.575-7.186,0-7.76,0-11.209,0-7.186,1.15-8.335.575-1.725-.287-2.3c-1.15-.575,0-2.012,1.15-1.725.862.287,2.012,2.3,3.449,1.15,1.725-1.15,3.162-5.461,4.6-8.91s3.736-3.449,5.461-4.311,5.748-5.174,8.048-11.5,0-12.359-1.15-16.67-2.3-3.449-4.886-3.449-7.473-.575-13.8-7.473-12.646-6.323-16.958-5.174-8.623-2.012-11.5-2.587-5.461,2.874-7.473,3.736,1.15-3.162,1.15-5.461-7.76-6.036-13.509-8.335c-6.036-2.3-8.335-1.15-8.335,2.587s-2.3-1.15-4.024,2.874-5.174,1.437-2.874,0c2.3-1.15,4.311-4.311,4.886-6.611.862-2.3-8.335-4.311-11.784-3.162-3.162,1.15-1.15,6.036-3.736,4.6s-.575-4.886,1.437-4.886,4.311-4.024,5.748-7.186-2.3-3.449-4.6-6.036-1.725-10.06-4.024-11.209c-2.587,2.587-5.748,6.323-6.9,9.2-1.15,3.736-2.874,1.437-6.036,2.587s-4.886-.287-5.748-1.725-4.024,0-6.323-.287-.862,2.874-2.3,3.736-5.461-1.725-6.9-.287-2.3,0-2.874,1.437-3.162.575-3.736,1.437-3.162,1.437-6.323-2.012-2.587-9.2-1.15-10.347,1.437-4.024-.575-4.886,0-4.6-2.3-4.886-2.012,2.874-3.737,3.162c-1.437.575-5.461,3.162-7.186,2.874s-4.024.287-4.024,2.3-2.012,1.437-2.3-.287c-.287-1.437-4.024-.575-5.174-1.725s-6.036-.575-3.736.575c2.012,1.15,2.3,2.3,2.3,4.311s1.437,1.437,1.437,3.736,1.725.575,2.874.575,1.15,2.012-.575,2.3a3.4,3.4,0,0,0-3.162,3.162c-.575,1.725-2.3.575-3.737,2.012s-2.874,2.874-4.024,2.012c-1.15-.575-2.012-.287-3.162.575-1.15.575-1.725,0-3.449-1.437-1.437-1.15-2.012-3.449-4.311-5.748-1.437.575-4.024,1.725-5.748,1.725-2.012,0-8.335-.575-8.623.575a3.117,3.117,0,0,0,1.437,3.162c1.15.287,3.162.862,1.15,2.3s-4.024-.575-4.024,3.162,4.6,6.036,3.736,9.485a36.181,36.181,0,0,0-1.15,7.76c0,1.725-.575,7.473-2.3,7.76-1.437.287-2.874-1.437-4.886.287s-4.6.575-6.9,2.587-4.886,1.15-5.174,3.449-2.3,3.449-2.012,5.461c.575,2.012-1.15,1.437-2.587,3.162-1.437,1.437.287,2.587-.862,3.737s.287,3.162,1.437,4.886c1.15,2.012,2.587,3.162,2.3,4.886s1.15,2.3,2.874,2.3c1.725-.287.287,3.162,3.162,3.162s5.461.575,6.036-.862,2.587-2.874,2.587-.575-.575,8.335,1.437,7.473c2.012-.575,5.748-.575,7.473.287a4.811,4.811,0,0,0,4.886-1.15c1.15-1.15,2.587-1.15,4.886-2.587s4.6-3.162,6.9-3.162,6.036-1.437,5.461.287-.862,8.048,2.012,11.209,4.311,4.311,6.9,4.024,2.3,1.15,4.024.862c2.012-.287.575,2.012,2.3,2.012s4.886.287,4.886,2.3,5.174.287,6.323,1.437,2.587,2.012,2.3,4.024,2.587,3.449.862,4.311.575,2.587.575,4.886c.287,2.3,2.587,3.162,6.323,2.874s4.886.287,4.886,2.874,2.587,3.162,3.449,5.748-1.15,5.461-.575,7.473a4.419,4.419,0,0,1-1.725,4.024c1.437,1.725,1.437,2.3.287,3.162-1.437.862,2.012,3.162,1.15,7.186-.862,3.736-1.15,4.6,2.874,4.6,4.024.287,3.736,1.437,4.886.575,1.437-.862,3.449,2.874,4.024,4.886s2.012,6.323,2.874,6.323c.575,0,2.874-2.012,4.886-1.15s-.575,7.473-.575,10.347a12.97,12.97,0,0,1,3.736.287c1.15.575,1.437,7.473,1.15,8.91-.575,1.437-4.886,2.587-6.9,4.024-2.3,1.437-7.473,6.611-10.06,10.635-1.437,2.3-3.737,4.311-5.174,6.036h1.725c1.15-.575,2.874-.575,4.886,1.725s1.725,4.024,2.587,4.024,1.725-3.162,3.162-.862,5.461,4.024,6.611,4.886c.862,1.15,4.024,1.725,4.024,4.6,0,2.012-.862,5.748.575,8.91C206.855,292.935,207.717,292.073,208.867,291.21Z" transform="translate(162.768 109.592)" fill="none" stroke="#b9b9b9" stroke-miterlimit="10" stroke-width="1"/>
            <path id="Path_267" data-name="Path 267" d="M78.167,31.962c1.15,1.725,10.635,4.311,11.784,2.012C90.814,31.675,76.73,29.663,78.167,31.962Z" transform="translate(145.734 57.713)" fill="#fff" stroke="#fff" stroke-miterlimit="10" stroke-width="0.25"/>
            <path id="Path_268" data-name="Path 268" d="M101.183,33.059c2.3,3.449,8.91,1.437,9.485,0C111.53,30.472,98.883,29.322,101.183,33.059Z" transform="translate(188.538 57.191)" fill="#fff" stroke="#fff" stroke-miterlimit="10" stroke-width="0.25"/>
            <path id="Path_269" data-name="Path 269" d="M143.48,75.572c-2.012-2.3-3.736-3.736-4.024-3.162-.575.575-2.874.862-4.311,0-1.725-.862-2.3-2.587-3.736-2.587-1.15,0-4.886-2.3-7.186-4.024v.862c0,1.15-1.725,2.012-4.024,2.012s-2.012,2.587-2.012,4.311-1.725,1.725-2.587,3.449.287,2.3-1.437,3.162-2.3,2.3-1.15,4.024c1.15,1.437,0,2.874-.287,3.736s1.437,1.15,3.449,2.874c1.725,1.725,2.012-.575,2.874.575s-.575,3.449-2.587,3.449h-.575c1.15,1.15,1.725,2.3,1.15,2.874-.862,1.437-1.725,1.437,0,2.874,1.725,1.725,2.874-.862,4.311,1.15s2.587,3.162,4.024-.287,2.587-8.335,5.174-9.2,8.048-2.012,11.5-6.036c3.162-4.311,1.437-4.6,3.162-5.748C146.355,79.021,145.492,78.159,143.48,75.572ZM52.368,74.135c-2.587,3.736,2.587,7.473,3.449,5.748C56.967,77.872,54.667,70.111,52.368,74.135Z" transform="translate(96.229 123.036)" fill="#fff" stroke="#fff" stroke-miterlimit="10" stroke-width="0.25"/>
            <path id="Path_270" data-name="Path 270" d="M82.611,25.473c-.287.862-2.3-.862-2.3-2.3S78.3,21.736,78.3,19.149c0-2.3.862-3.736,2.012-1.725s.287,3.449.575,4.311C81.174,23.173,83.186,24.323,82.611,25.473Z" transform="translate(146.176 30.575)" fill="#fff" stroke="#fff" stroke-miterlimit="10" stroke-width="0.25"/>
            <path id="Path_271" data-name="Path 271" d="M112.22,51.089c-.862-.575,1.15-2.012-.287-2.587-1.15-.575,2.874-2.3,4.311-1.15s1.437,2.874.287,3.449C115.382,51.089,112.8,51.663,112.22,51.089Z" transform="translate(208.829 87.736)" fill="#fff" stroke="#fff" stroke-miterlimit="10" stroke-width="0.25"/>
          </g>
        </g>
      </g>
      <g id="Group_26" data-name="Group 26" transform="translate(1594.517 1234.488)">
        <g id="Group_17" data-name="Group 17" transform="translate(8.487 7.182)" clip-path="url(#clip-path)">
          <g id="Group_16" data-name="Group 16" transform="translate(-936.377 -1185.969)" clip-path="url(#clip-path-2)">
            <path id="Path_115" data-name="Path 115" d="M11.27-41.421H21.716V-51.867H11.27Z" transform="translate(922.496 1235.225)" fill="#f26e2a"/>
          </g>
        </g>
        <g id="Group_19" data-name="Group 19" transform="translate(0 0)" clip-path="url(#clip-path-3)">
          <g id="Group_18" data-name="Group 18" transform="translate(-927.89 -1178.788)" clip-path="url(#clip-path-2)">
            <path id="Path_118" data-name="Path 118" d="M-4.98-28.839H22.441V-65.617H-4.98Z" transform="translate(930.258 1241.794)" fill="#f26e2a"/>
          </g>
        </g>
      </g>
    </g>
  </g>
</svg>
